<svg width="21" height="20" viewBox="0 0 21 20" fill="none" xmlns="http://www.w3.org/2000/svg">
<g id="ant-design:instagram-filled">
<path id="Vector" d="M10.4996 7.37711C9.07162 7.37711 7.90628 8.47662 7.90628 9.82394C7.90628 11.1713 9.07162 12.2708 10.4996 12.2708C11.9276 12.2708 13.0929 11.1713 13.0929 9.82394C13.0929 8.47662 11.9276 7.37711 10.4996 7.37711ZM18.2776 9.82394C18.2776 8.8107 18.2873 7.80664 18.227 6.79523C18.1667 5.62046 17.8826 4.57785 16.9722 3.71879C16.0597 2.85791 14.9567 2.59175 13.7116 2.53484C12.6377 2.47794 11.5735 2.48712 10.5015 2.48712C9.42764 2.48712 8.36347 2.47794 7.29152 2.53484C6.04642 2.59175 4.94139 2.85974 4.03092 3.71879C3.11849 4.57968 2.8364 5.62046 2.77609 6.79523C2.71578 7.80847 2.72551 8.81254 2.72551 9.82394C2.72551 10.8353 2.71578 11.8412 2.77609 12.8527C2.8364 14.0274 3.12044 15.07 4.03092 15.9291C4.94334 16.79 6.04642 17.0561 7.29152 17.113C8.36541 17.1699 9.42958 17.1608 10.5015 17.1608C11.5754 17.1608 12.6396 17.1699 13.7116 17.113C14.9567 17.0561 16.0617 16.7881 16.9722 15.9291C17.8846 15.0682 18.1667 14.0274 18.227 12.8527C18.2892 11.8412 18.2776 10.8372 18.2776 9.82394V9.82394ZM10.4996 13.5887C8.29149 13.5887 6.50944 11.9073 6.50944 9.82394C6.50944 7.74056 8.29149 6.05916 10.4996 6.05916C12.7077 6.05916 14.4897 7.74056 14.4897 9.82394C14.4897 11.9073 12.7077 13.5887 10.4996 13.5887ZM14.6532 6.78422C14.1376 6.78422 13.7213 6.3914 13.7213 5.90497C13.7213 5.41854 14.1376 5.02573 14.6532 5.02573C15.1687 5.02573 15.585 5.41854 15.585 5.90497C15.5852 6.02048 15.5612 6.13488 15.5144 6.24162C15.4676 6.34836 15.399 6.44534 15.3124 6.52702C15.2259 6.60869 15.1231 6.67345 15.01 6.71758C14.8968 6.76172 14.7756 6.78436 14.6532 6.78422V6.78422Z" fill="black"/>
</g>
</svg>
