<svg width="25" height="23" viewBox="0 0 25 23" fill="none" xmlns="http://www.w3.org/2000/svg">
<g id="typcn:social-linkedin">
<path id="Vector" d="M8.61179 17.5754H5.58798V8.39331H8.61179V17.5754ZM19.6991 17.5754H16.6753V12.6703C16.6753 11.3922 16.1753 10.7559 15.1845 10.7559C14.3994 10.7559 13.9014 11.1121 13.6515 11.8256V17.5754H10.6277C10.6277 17.5754 10.668 9.31152 10.6277 8.39331H13.0145L13.1989 10.2297H13.2614C13.8813 9.31152 14.8721 8.68897 16.2308 8.68897C17.2639 8.68897 18.0995 8.95067 18.7375 9.60811C19.3796 10.2665 19.6991 11.1498 19.6991 12.3903V17.5754Z" fill="black"/>
<path id="Vector_2" d="M7.09988 7.4751C7.96272 7.4751 8.66218 6.85845 8.66218 6.09778C8.66218 5.33711 7.96272 4.72046 7.09988 4.72046C6.23705 4.72046 5.53758 5.33711 5.53758 6.09778C5.53758 6.85845 6.23705 7.4751 7.09988 7.4751Z" fill="black"/>
</g>
</svg>
